<svg width="24" height="25" viewBox="0 0 24 25" fill="none" xmlns="http://www.w3.org/2000/svg">
<g clip-path="url(#clip0_8_200)">
<path fill-rule="evenodd" clip-rule="evenodd" d="M24 3.56841C23.1014 4.04634 22.1481 4.35982 21.172 4.49841C22.2006 3.76063 22.9702 2.59866 23.337 1.22961C22.3704 1.91791 21.3128 2.4029 20.21 2.66361C19.7494 2.07369 19.1928 1.60364 18.5745 1.28265C17.9563 0.96165 17.2896 0.796558 16.616 0.797612C13.437 0.797612 11.101 4.35681 11.819 8.05161C9.86138 7.93402 7.94625 7.32369 6.19796 6.26024C4.44967 5.1968 2.9073 3.70401 1.671 1.87881C1.04148 3.17966 0.848566 4.71943 1.13149 6.1849C1.41441 7.65037 2.15192 8.93147 3.194 9.76761C2.41251 9.73801 1.64826 9.48456 0.965 9.02841C0.911 11.7656 2.546 14.3264 4.914 14.8964C4.18873 15.1328 3.42806 15.1673 2.69 14.9972C3.00451 16.1713 3.61703 17.198 4.44184 17.9336C5.26665 18.6693 6.26249 19.0771 7.29 19.1C5.2262 21.0427 2.6043 21.9231 0 21.548C2.25151 23.2839 4.87183 24.2054 7.548 24.2024C16.69 24.2024 21.855 14.9372 21.543 6.62721C22.5067 5.7906 23.3387 4.75485 24 3.56841Z" fill="white"/>
</g>
<defs>
<clipPath id="clip0_8_200">
<rect width="24" height="24" fill="white" transform="translate(0 0.5)"/>
</clipPath>
</defs>
</svg>
