<svg width="24" height="25" viewBox="0 0 24 25" fill="none" xmlns="http://www.w3.org/2000/svg">
<path fill-rule="evenodd" clip-rule="evenodd" d="M22.675 0.5H1.325C0.593 0.5 0 1.093 0 1.825V23.176C0 23.907 0.593 24.5 1.325 24.5H12.82V15.206H9.692V11.584H12.82V8.913C12.82 5.813 14.713 4.125 17.479 4.125C18.804 4.125 19.942 4.224 20.274 4.268V7.508L18.356 7.509C16.852 7.509 16.561 8.224 16.561 9.272V11.585H20.148L19.681 15.207H16.561V24.5H22.677C23.407 24.5 24 23.907 24 23.175V1.825C24 1.093 23.407 0.5 22.675 0.5Z" fill="white"/>
</svg>
